<?xml version="1.0" standalone="no"?>
<!DOCTYPE svg PUBLIC "-//W3C//DTD SVG 20010904//EN"
 "http://www.w3.org/TR/2001/REC-SVG-20010904/DTD/svg10.dtd">
<svg version="1.0" xmlns="http://www.w3.org/2000/svg"
 width="260.000000pt" height="260.000000pt" viewBox="0 0 260.000000 260.000000"
 preserveAspectRatio="xMidYMid meet">
<metadata>
Created by potrace 1.14, written by Peter Selinger 2001-2017
</metadata>
<g transform="translate(0.000000,260.000000) scale(0.100000,-0.100000)"
fill="#000000" stroke="none">
<path d="M1719 2111 c-2 -17 -2 -17 -32 -96 -7 -16 -12 -34 -12 -40 -1 -5 -7
-8 -15 -6 -43 11 -55 6 -55 -21 1 -16 -2 -28 -5 -28 -3 0 -7 -10 -7 -22 -2
-30 -9 -84 -17 -128 -5 -32 -10 -66 -21 -140 -2 -14 -6 -38 -9 -55 -3 -16 -8
-50 -12 -75 -3 -25 -8 -54 -10 -65 -2 -11 -6 -38 -9 -60 -3 -22 -8 -56 -11
-75 -3 -19 -7 -51 -10 -70 -2 -19 -8 -55 -12 -80 l-8 -45 -24 78 c-22 74 -26
79 -62 94 -32 13 -43 25 -68 80 -17 35 -30 66 -30 69 0 2 -9 23 -19 47 -11 23
-38 88 -62 145 -42 102 -58 115 -64 55 -4 -35 -14 -101 -20 -129 -3 -12 -7
-39 -10 -60 -8 -54 -13 -66 -25 -59 -20 13 -67 14 -67 2 0 -13 -10 -94 -19
-147 -3 -19 -7 -48 -8 -65 -2 -16 -6 -48 -10 -70 -3 -22 -8 -56 -10 -75 -22
-175 -28 -194 -56 -198 -27 -4 -67 -45 -133 -135 -12 -17 -13 -14 -9 25 8 99
6 123 -13 208 -2 8 -4 18 -4 22 -1 7 -120 71 -122 66 -4 -14 -9 -49 -11 -77
-2 -26 -15 -47 -56 -89 -49 -50 -90 -130 -74 -146 3 -4 -1 -6 -9 -6 -8 0 -30
30 -49 66 -19 37 -44 77 -56 91 l-21 24 -22 -73 c-24 -79 -45 -125 -56 -119
-11 5 -55 -37 -56 -54 -1 -8 -2 -18 -3 -22 -2 -5 -8 -37 -16 -72 -10 -47 -18
-65 -32 -69 -12 -3 -17 -10 -14 -19 3 -8 1 -11 -4 -8 -6 3 -10 1 -10 -5 0 -7
19 -10 52 -8 38 2 52 7 54 19 5 38 16 58 34 64 23 7 50 32 50 46 0 6 -6 7 -12
2 -20 -12 -48 -14 -48 -4 0 5 9 13 20 16 11 4 18 11 14 16 -3 5 -10 6 -16 3
-6 -4 -8 1 -5 12 4 11 9 32 13 48 4 16 13 41 20 55 7 14 19 47 25 73 13 50 33
63 44 28 3 -11 12 -26 18 -33 7 -7 23 -34 37 -60 29 -54 44 -59 59 -17 5 17 7
30 4 30 -3 0 0 6 6 13 6 8 8 16 6 19 -3 3 19 31 48 61 52 55 54 56 64 34 21
-42 21 -55 6 -83 -51 -97 -93 -184 -93 -193 0 -7 23 -33 52 -59 28 -26 62 -57
74 -69 26 -26 81 -31 103 -10 11 10 13 9 7 -1 -6 -9 10 -12 68 -11 l76 1 -3
34 c-3 18 0 31 4 28 5 -3 9 -14 9 -25 0 -10 5 -19 11 -19 5 0 7 -4 4 -10 -4
-6 7 -10 24 -10 36 0 37 6 15 79 -14 48 -14 57 2 109 9 31 17 62 19 67 1 6 5
17 8 25 10 27 50 164 54 185 2 10 9 23 16 28 9 6 8 7 -2 5 -8 -3 -33 -40 -55
-84 -23 -43 -43 -81 -46 -84 -3 -3 -16 -27 -30 -55 -14 -27 -34 -67 -46 -88
l-21 -38 2 108 c3 131 1 118 26 120 35 3 47 22 54 86 4 34 9 71 11 82 3 11 7
40 9 65 9 81 10 85 20 92 6 5 5 8 -3 8 -8 0 -10 5 -6 12 4 6 9 25 10 42 8 81
16 131 25 154 8 21 13 23 44 18 28 -6 35 -4 35 9 0 8 0 16 0 18 1 1 5 20 10
42 6 22 13 56 16 75 10 57 14 48 15 -31 1 -41 2 -110 4 -154 1 -44 0 -84 -4
-90 -3 -5 -7 -21 -8 -35 l-3 -25 24 28 c14 15 30 27 36 27 5 0 10 5 10 11 0 5
5 7 10 4 6 -4 10 -14 9 -23 -1 -10 0 -19 1 -22 2 -7 7 -28 15 -75 3 -22 8 -46
9 -54 2 -8 25 -26 52 -41 l49 -26 -2 -64 c-1 -36 -4 -92 -7 -125 -5 -54 -12
-146 -20 -260 -1 -22 1 -48 6 -57 4 -9 9 -28 10 -42 2 -25 5 -26 61 -26 l58 0
-5 88 c-18 278 -17 339 3 379 11 21 22 56 25 78 2 22 5 40 6 40 1 0 3 16 5 35
1 19 6 53 10 75 3 22 8 54 10 70 7 75 17 140 21 144 4 4 5 -31 6 -181 1 -43 4
-78 8 -78 10 0 24 66 23 105 -1 30 -12 210 -17 276 -2 20 3 72 9 115 7 44 16
102 19 129 4 28 8 59 10 70 2 11 7 46 11 77 7 56 8 57 39 55 25 -2 32 2 34 21
2 12 8 22 13 22 6 0 8 4 4 9 -3 5 -1 12 5 16 6 4 8 10 6 14 -3 4 -1 13 4 21 6
9 7 -4 5 -35 -3 -28 -7 -81 -10 -120 -3 -38 -8 -90 -10 -115 -7 -66 -18 -220
-18 -255 0 -45 14 -151 23 -182 7 -24 8 -20 8 22 1 58 10 179 17 215 3 14 8
41 11 60 7 46 24 90 34 90 16 0 69 -184 59 -202 -7 -12 -6 -18 1 -18 6 0 9 -4
6 -8 -7 -11 -20 -123 -31 -267 -4 -44 -9 -96 -11 -115 -2 -19 -6 -64 -9 -100
-10 -109 -15 -139 -35 -186 -11 -24 -20 -48 -21 -52 -1 -4 -6 -18 -11 -32 -42
-107 -98 -263 -98 -270 0 -6 26 -10 58 -10 l59 0 24 47 24 47 3 -47 c3 -41 6
-47 26 -47 22 0 22 1 21 143 -2 126 -1 139 11 112 7 -16 32 -70 54 -118 22
-49 40 -95 40 -103 0 -8 5 -14 11 -14 5 0 7 -4 4 -10 -4 -6 21 -10 67 -10 72
0 74 1 76 26 1 14 -1 31 -5 38 -4 6 -8 13 -8 16 -1 3 -4 26 -9 52 -4 26 -6 49
-5 50 1 2 -3 12 -9 24 -6 11 -8 25 -4 31 8 11 86 53 100 53 4 0 19 -26 32 -57
32 -80 41 -86 25 -17 -7 32 -12 60 -11 62 2 1 15 -2 30 -8 15 -5 32 -8 37 -4
5 3 9 0 9 -7 0 -7 3 -9 7 -5 4 3 12 -6 18 -21 9 -21 8 -34 -1 -53 -15 -30 -17
-46 -15 -123 l1 -58 80 2 c47 1 83 7 87 13 3 6 3 8 -2 4 -4 -4 -22 4 -40 17
-17 14 -37 25 -43 25 -12 0 -23 35 -43 144 -7 37 -18 69 -24 71 -5 1 -30 8
-55 15 -25 7 -49 14 -55 14 -11 1 -36 76 -29 88 3 4 1 8 -3 8 -5 0 -9 8 -10
18 -1 9 -18 85 -38 167 -20 83 -39 159 -41 170 -3 20 -67 285 -86 363 -7 30
-16 42 -29 43 -11 1 -24 2 -31 3 -6 0 -38 69 -71 151 -32 83 -67 168 -77 190
-9 22 -25 62 -35 88 -18 47 -34 68 -36 48z"/>
<path d="M1649 1183 c-11 -30 -114 -335 -123 -368 -4 -11 4 0 16 25 12 25 23
48 24 53 1 4 3 9 4 12 1 3 3 8 5 13 1 4 9 24 18 45 10 20 24 54 33 75 16 35
45 172 37 172 -2 0 -8 -12 -14 -27z"/>
<path d="M355 600 c-3 -6 1 -7 9 -4 18 7 21 14 7 14 -6 0 -13 -4 -16 -10z"/>
<path d="M2187 535 c3 -22 10 -42 15 -43 4 -2 6 -8 2 -13 -3 -5 2 -9 10 -9 19
0 21 34 3 52 -7 7 -18 22 -25 33 -9 17 -10 13 -5 -20z"/>
</g>
</svg>
